<?xml version="1.0" encoding="utf-8"?>
<!-- Generator: Adobe Illustrator 25.2.0, SVG Export Plug-In . SVG Version: 6.00 Build 0)  -->
<svg version="1.1" id="Слой_1" xmlns="http://www.w3.org/2000/svg" xmlns:xlink="http://www.w3.org/1999/xlink" x="0px" y="0px"
	 viewBox="0 0 88 67" style="enable-background:new 0 0 88 67;" xml:space="preserve">
<style type="text/css">
	.st0{fill:#242C4A;stroke:#FFFFFF;stroke-width:1.2;}
</style>
<path class="st0" d="M86.7,36.7L68.9,19.4c-0.4-0.4-0.9-0.7-1.4-0.9c-0.5-0.2-1.1-0.3-1.7-0.3H41.1V21h7.2v20.9h2.9V21h14.6
	c0.2,0,0.4,0,0.6,0.1c0.2,0.1,0.3,0.2,0.5,0.3l2.5,2.4h-6.6c-0.8,0-1.5,0.3-2,0.8c-0.5,0.5-0.8,1.2-0.8,2v12.5c0,0.7,0.3,1.4,0.8,2
	c0.5,0.5,1.3,0.8,2,0.8h21.6V53c0,0.4-0.2,0.7-0.4,1c-0.3,0.3-0.6,0.4-1,0.4h-3c-0.3-2.3-1.5-4.4-3.4-6c-1.8-1.5-4.2-2.4-6.6-2.4
	s-4.8,0.8-6.6,2.4c-1.8,1.5-3,3.6-3.4,6H39.6c-0.3-2.3-1.5-4.4-3.4-6C34.4,46.9,32,46,29.6,46s-4.8,0.8-6.6,2.4
	c-1.8,1.5-3,3.6-3.4,6h-3c-0.4,0-0.7-0.1-1-0.4c-0.3-0.3-0.4-0.6-0.4-1V40.5h-2.9V53c0,1.1,0.5,2.2,1.3,2.9c0.8,0.8,1.9,1.2,3,1.2h3
	c0.3,2.1,1.3,4.1,2.9,5.6H0.9v2.8h69c2.4,0,4.8-0.8,6.6-2.4c1.8-1.5,3-3.6,3.4-6h3c1.1,0,2.2-0.4,3-1.2c0.8-0.8,1.3-1.8,1.3-2.9
	V37.7C87.1,37.3,87,36.9,86.7,36.7z M22.4,55.7c0-1.4,0.4-2.7,1.2-3.9c0.8-1.1,1.9-2,3.2-2.6c1.3-0.5,2.8-0.7,4.2-0.4
	c1.4,0.3,2.7,0.9,3.7,1.9c1,1,1.7,2.2,2,3.6c0.3,1.3,0.1,2.7-0.4,4c-0.5,1.3-1.5,2.4-2.6,3.1c-1.2,0.8-2.6,1.2-4,1.2
	c-1.9,0-3.7-0.7-5.1-2C23.2,59.4,22.4,57.6,22.4,55.7z M36.7,62.7c1.6-1.5,2.6-3.4,2.9-5.6h20.4c0.3,2.1,1.3,4.1,2.9,5.6H36.7z
	 M69.9,62.7c-1.4,0-2.8-0.4-4-1.2c-1.2-0.8-2.1-1.8-2.6-3.1c-0.5-1.3-0.7-2.7-0.4-4c0.3-1.3,1-2.6,2-3.6c1-1,2.3-1.6,3.7-1.9
	c1.4-0.3,2.8-0.1,4.2,0.4c1.3,0.5,2.4,1.4,3.2,2.6c0.8,1.1,1.2,2.5,1.2,3.9c0,1.8-0.8,3.6-2.1,4.9C73.6,62,71.8,62.7,69.9,62.7z
	 M62.7,39.1V26.5h9.5l12.1,11.7v0.8H62.7z"/>
<path class="st0" d="M31.1,54.4h-2.9v2.8h2.9V54.4z"/>
<path class="st0" d="M71.3,54.4h-2.9v2.8h2.9V54.4z"/>
<path class="st0" d="M8.1,50.2H0.9V53h7.2V50.2z"/>
<path class="st0" d="M8.1,44.6H3.8v2.8h4.3V44.6z"/>
<path class="st0" d="M8.1,39.1H5.2v2.8h2.9V39.1z"/>
<path class="st0" d="M19.6,37.7c3.7,0,7.3-1.1,10.4-3c3.1-2,5.5-4.8,6.9-8.1c1.4-3.3,1.8-6.9,1.1-10.4c-0.7-3.5-2.5-6.7-5.1-9.3
	s-5.9-4.3-9.6-4.9c-3.6-0.7-7.4-0.3-10.8,1C9,4.3,6.1,6.6,4,9.6c-2.1,3-3.1,6.5-3.1,10c0,4.8,2,9.4,5.5,12.8
	C9.9,35.8,14.6,37.7,19.6,37.7z M19.6,4.3c3.1,0,6.2,0.9,8.8,2.6c2.6,1.7,4.6,4.1,5.8,6.9c1.2,2.8,1.5,5.9,0.9,8.8
	c-0.6,3-2.1,5.7-4.3,7.8s-5,3.6-8.1,4.2c-3.1,0.6-6.2,0.3-9.1-0.9c-2.9-1.2-5.4-3.1-7.1-5.6c-1.7-2.5-2.7-5.5-2.7-8.5
	c0-4.1,1.7-7.9,4.6-10.8C11.4,5.9,15.4,4.3,19.6,4.3z"/>
<path class="st0" d="M19.6,32.1c0.4,0,0.7-0.1,1-0.4c0.9-0.9,9-8.9,9-14.9c0-2.6-1.1-5.1-2.9-6.9c-1.9-1.8-4.4-2.9-7.1-2.9
	s-5.2,1-7.1,2.9c-1.9,1.8-2.9,4.3-2.9,6.9c0,6,8.1,14,9,14.9C18.8,32,19.2,32.1,19.6,32.1z M19.6,9.9c1.9,0,3.7,0.7,5.1,2
	c1.3,1.3,2.1,3.1,2.1,4.9c0,3.6-4.5,9.1-7.2,11.9c-2.7-2.8-7.2-8.3-7.2-11.9c0-1.8,0.8-3.6,2.1-4.9C15.8,10.6,17.7,9.9,19.6,9.9z"/>
<path class="st0" d="M23.9,16.8c0-0.8-0.3-1.6-0.7-2.3c-0.5-0.7-1.1-1.2-1.9-1.5c-0.8-0.3-1.7-0.4-2.5-0.2c-0.8,0.2-1.6,0.6-2.2,1.1
	c-0.6,0.6-1,1.3-1.2,2.1c-0.2,0.8-0.1,1.6,0.2,2.4c0.3,0.8,0.9,1.4,1.6,1.9c0.7,0.5,1.5,0.7,2.4,0.7c1.1,0,2.2-0.4,3-1.2
	C23.4,19,23.9,17.9,23.9,16.8z M18.1,16.8c0-0.3,0.1-0.5,0.2-0.8c0.2-0.2,0.4-0.4,0.6-0.5c0.3-0.1,0.6-0.1,0.8-0.1
	c0.3,0.1,0.5,0.2,0.7,0.4c0.2,0.2,0.3,0.4,0.4,0.7c0.1,0.3,0,0.5-0.1,0.8c-0.1,0.3-0.3,0.5-0.5,0.6c-0.2,0.2-0.5,0.2-0.8,0.2
	c-0.4,0-0.7-0.1-1-0.4C18.3,17.5,18.1,17.2,18.1,16.8z"/>
<path class="st0" d="M61.2,44.6h-5.8v2.8h5.8V44.6z"/>
</svg>
