<?xml version="1.0" encoding="UTF-8"?> <svg xmlns="http://www.w3.org/2000/svg" viewBox="0 0 64 64" width="512px" height="512px"> <g> <g id="Product"> <path d="M58.8,25.821A4.065,4.065,0,0,0,54.1,28.8l-3.064,9.174a4.106,4.106,0,0,0-.646-.243,3.978,3.978,0,0,0-3.036.4L37.5,43.824a9.028,9.028,0,0,0-4.5,7.8V61a1,1,0,0,0,2,0V51.619a7.017,7.017,0,0,1,3.5-6.062l9.856-5.691a2,2,0,1,1,2,3.464L44.5,46.711a1,1,0,1,0,1,1.732l5.856-3.381A4,4,0,0,0,52.82,39.6c-.043-.074-.1-.135-.147-.206l3.343-10.014a2.117,2.117,0,0,1,2.372-1.6A1.993,1.993,0,0,1,59.98,29.73a1.963,1.963,0,0,1-.066.521L56.583,42.675a6.951,6.951,0,0,1-1.81,3.138l-6.722,6.722A6.955,6.955,0,0,0,46,57.485V61a1,1,0,0,0,2,0V57.485a4.967,4.967,0,0,1,1.465-3.535l6.722-6.723a8.96,8.96,0,0,0,2.329-4.038l3.329-12.418a4.006,4.006,0,0,0-3.041-4.95Z" data-original="#000000" class="active-path" data-old_color="#000000" fill="#65A120"></path> <path d="M20,36H46a3,3,0,0,0,3-3V5a3,3,0,0,0-3-3H20a3,3,0,0,0-3,3V33A3,3,0,0,0,20,36ZM35,4v9.131l-1.445-.963a1,1,0,0,0-1.11,0L31,13.131V4ZM19,5a1,1,0,0,1,1-1h9V15a1,1,0,0,0,1.555.832L33,14.2l2.445,1.63A1,1,0,0,0,37,15V4h9a1,1,0,0,1,1,1V33a1,1,0,0,1-1,1H20a1,1,0,0,1-1-1Z" data-original="#000000" class="active-path" data-old_color="#000000" fill="#65A120"></path> <path d="M25,30a1,1,0,0,0,0,2H41a1,1,0,0,0,0-2H39V22.414l1.293,1.293a1,1,0,0,0,1.414-1.414l-3-3a1,1,0,0,0-1.414,0l-3,3a1,1,0,1,0,1.414,1.414L37,22.414V30H29V22.414l1.293,1.293a1,1,0,0,0,1.414-1.414l-3-3a1,1,0,0,0-1.414,0l-3,3a1,1,0,1,0,1.414,1.414L27,22.414V30Z" data-original="#000000" class="active-path" data-old_color="#000000" fill="#65A120"></path> <path d="M26.5,43.824l-9.856-5.69a4,4,0,0,0-3.682-.157L9.916,28.861a4.089,4.089,0,0,0-4.728-3.038A4.03,4.03,0,0,0,2.02,29.73a3.983,3.983,0,0,0,.134,1.039L5.483,43.186a8.969,8.969,0,0,0,2.33,4.041l6.723,6.723A4.967,4.967,0,0,1,16,57.485V61a1,1,0,0,0,2,0V57.485a6.954,6.954,0,0,0-2.05-4.949L9.227,45.813a6.963,6.963,0,0,1-1.811-3.142L4.085,30.249A2.008,2.008,0,0,1,5.6,27.779,2.133,2.133,0,0,1,8,29.437l3.326,9.957c-.047.07-.105.13-.148.2a4,4,0,0,0,1.465,5.464L18.5,48.443a1,1,0,1,0,1-1.732L13.644,43.33a2,2,0,1,1,2-3.464L25.5,45.557A7.018,7.018,0,0,1,29,51.619V61a1,1,0,0,0,2,0V51.619A9.026,9.026,0,0,0,26.5,43.824Z" data-original="#000000" class="active-path" data-old_color="#000000" fill="#65A120"></path> </g> </g> </svg> 